# xmcd
#
# Track frame offsets:
#	150
#	11682
#	21080
#	32431
#	43948
#	56558
#	67043
#	77633
#	89696
#	101274
#	112304
#	123006
#	135393
#	149255
#	161060
#	171993
#	182805
#	193788
#	204000
#	215858
#	226024
#	237113
#	249090
#	258933
#	271768
#	281347
#	295783
#	309516
#	322450
#
# Disc length: 4462 seconds
#
# Revision: 0
# Processed by: cddbd v1.5.2PL0 Copyright (c) Steve Scherf et al.
# Submitted via: EasyCDDAExtractor 15.3.0.1
#
DISCID=9e116c1d
DTITLE=Wills Bob - Faded Love Cd 5
DYEAR=1900
DGENRE=
TTITLE0=Beaumont Rag (1955)
TTITLE1=Don't Let The Deal Go Down
TTITLE2=I'll Follow You Wherever You Go (1955)
TTITLE3=Four Or Five Times (1955)
TTITLE4=San Antonio Rose (1955)
TTITLE5=Spanish Two-Step (1955)
TTITLE6=Lonestar Rag (1955)
TTITLE7=Boston Fancy (1955)
TTITLE8=Hoopaw Rag (1955)
TTITLE9=Don't Keep It A Secret (1955)
TTITLE10=Roll Your Own (1968)
TTITLE11=My Shoes Keep Walking Back To You (1956)
TTITLE12=I Wonder If You Feel The Way I Do (2005)
TTITLE13=Sugar Baby (1956)
TTITLE14=So Let's Rock (1956)
TTITLE15=Bunny With The Powder Puff Tail (1956)
TTITLE16=Texas Fiddler (1956)
TTITLE17=Billy's Bounce (1957)
TTITLE18=Midnight In Old Amarillo (1957)
TTITLE19=Coquette (1957)
TTITLE20=New Roadside Rag (1957)
TTITLE21=Orange Blossom Special (1957)
TTITLE22=Little Star Of Heaven (1950)
TTITLE23=It's The Bottle Talkin' (1957)
TTITLE24=Gotta Walk Alone (2005)
TTITLE25=Lily Dale (1957)
TTITLE26=New Faded Love (1957)
TTITLE27=Toodleumbo (1957)
TTITLE28=Bob's Breakdown (1957)
EXTD=
EXTT0=
EXTT1=
EXTT2=
EXTT3=
EXTT4=
EXTT5=
EXTT6=
EXTT7=
EXTT8=
EXTT9=
EXTT10=
EXTT11=
EXTT12=
EXTT13=
EXTT14=
EXTT15=
EXTT16=
EXTT17=
EXTT18=
EXTT19=
EXTT20=
EXTT21=
EXTT22=
EXTT23=
EXTT24=
EXTT25=
EXTT26=
EXTT27=
EXTT28=
PLAYORDER=
